<?xml version="1.0" encoding="UTF-8" standalone="no"?><svg xmlns="http://www.w3.org/2000/svg" xmlns:xlink="http://www.w3.org/1999/xlink" contentScriptType="application/ecmascript" contentStyleType="text/css" height="598px" preserveAspectRatio="none" style="width:593px;height:598px;" version="1.1" viewBox="0 0 593 598" width="593px" zoomAndPan="magnify"><defs><filter height="300%" id="f9b4i46j72gwd" width="300%" x="-1" y="-1"><feGaussianBlur result="blurOut" stdDeviation="2.0"/><feColorMatrix in="blurOut" result="blurOut2" type="matrix" values="0 0 0 0 0 0 0 0 0 0 0 0 0 0 0 0 0 0 .4 0"/><feOffset dx="4.0" dy="4.0" in="blurOut2" result="blurOut3"/><feBlend in="SourceGraphic" in2="blurOut3" mode="normal"/></filter></defs><g><!--cluster application--><rect fill="#FFFFFF" filter="url(#f9b4i46j72gwd)" height="83" style="stroke: #000000; stroke-width: 1.5;" width="233" x="240" y="24"/><text fill="#000000" font-family="sans-serif" font-size="14" font-weight="bold" lengthAdjust="spacingAndGlyphs" textLength="80" x="316.5" y="39.5352">application</text><!--cluster api--><rect fill="#FFFFFF" filter="url(#f9b4i46j72gwd)" height="83" style="stroke: #000000; stroke-width: 1.5;" width="223" x="244" y="131"/><text fill="#000000" font-family="sans-serif" font-size="14" font-weight="bold" lengthAdjust="spacingAndGlyphs" textLength="22" x="344.5" y="146.5352">api</text><!--cluster service--><rect fill="#FFFFFF" filter="url(#f9b4i46j72gwd)" height="242" style="stroke: #000000; stroke-width: 1.5;" width="560" x="22" y="238"/><text fill="#000000" font-family="sans-serif" font-size="14" font-weight="bold" lengthAdjust="spacingAndGlyphs" textLength="50" x="277" y="253.5352">service</text><!--cluster user--><polygon fill="#FFFFFF" filter="url(#f9b4i46j72gwd)" points="307,281,344,281,351,303.4883,558,303.4883,558,456,307,456,307,281" style="stroke: #000000; stroke-width: 1.5;"/><line style="stroke: #000000; stroke-width: 1.5;" x1="307" x2="351" y1="303.4883" y2="303.4883"/><text fill="#000000" font-family="sans-serif" font-size="14" font-weight="bold" lengthAdjust="spacingAndGlyphs" textLength="31" x="311" y="296.5352">user</text><!--cluster file--><polygon fill="#FFFFFF" filter="url(#f9b4i46j72gwd)" points="46,281,76,281,83,303.4883,283,303.4883,283,456,46,456,46,281" style="stroke: #000000; stroke-width: 1.5;"/><line style="stroke: #000000; stroke-width: 1.5;" x1="46" x2="83" y1="303.4883" y2="303.4883"/><text fill="#000000" font-family="sans-serif" font-size="14" font-weight="bold" lengthAdjust="spacingAndGlyphs" textLength="24" x="50" y="296.5352">file</text><!--cluster dependency--><rect fill="#FFFFFF" filter="url(#f9b4i46j72gwd)" height="83" style="stroke: #000000; stroke-width: 1.5;" width="490" x="74" y="504"/><text fill="#000000" font-family="sans-serif" font-size="14" font-weight="bold" lengthAdjust="spacingAndGlyphs" textLength="84" x="277" y="519.5352">dependency</text><!--class HttpApp--><rect fill="#FEFECE" filter="url(#f9b4i46j72gwd)" height="32" id="HttpApp" style="stroke: #A80036; stroke-width: 1.5;" width="81" x="375.5" y="59"/><ellipse cx="390.5" cy="75" fill="#ADD1B2" rx="11" ry="11" style="stroke: #A80036; stroke-width: 1.0;"/><path d="M392.9731,81.1431 Q392.3921,81.4419 391.7529,81.5913 Q391.1138,81.7407 390.4082,81.7407 Q387.9014,81.7407 386.5815,80.0889 Q385.2617,78.437 385.2617,75.3159 Q385.2617,72.1865 386.5815,70.5347 Q387.9014,68.8828 390.4082,68.8828 Q391.1138,68.8828 391.7612,69.0322 Q392.4087,69.1816 392.9731,69.4805 L392.9731,72.2031 Q392.3423,71.6221 391.7488,71.3523 Q391.1553,71.0825 390.5244,71.0825 Q389.1797,71.0825 388.4949,72.1492 Q387.8101,73.2158 387.8101,75.3159 Q387.8101,77.4077 388.4949,78.4744 Q389.1797,79.541 390.5244,79.541 Q391.1553,79.541 391.7488,79.2712 Q392.3423,79.0015 392.9731,78.4204 Z "/><text fill="#000000" font-family="sans-serif" font-size="12" lengthAdjust="spacingAndGlyphs" textLength="49" x="404.5" y="79.5352">HttpApp</text><!--class GrpcApp--><rect fill="#D3D3D3" filter="url(#f9b4i46j72gwd)" height="32" id="GrpcApp" style="stroke: #A80036; stroke-width: 1.5;" width="84" x="256" y="59"/><rect fill="#D3D3D3" height="32" style="stroke: #A80036; stroke-width: 1.5;" width="84" x="256" y="59"/><ellipse cx="271" cy="75" fill="#ADD1B2" rx="11" ry="11" style="stroke: #A80036; stroke-width: 1.0;"/><path d="M273.4731,81.1431 Q272.8921,81.4419 272.2529,81.5913 Q271.6138,81.7407 270.9082,81.7407 Q268.4014,81.7407 267.0815,80.0889 Q265.7617,78.437 265.7617,75.3159 Q265.7617,72.1865 267.0815,70.5347 Q268.4014,68.8828 270.9082,68.8828 Q271.6138,68.8828 272.2612,69.0322 Q272.9087,69.1816 273.4731,69.4805 L273.4731,72.2031 Q272.8423,71.6221 272.2488,71.3523 Q271.6553,71.0825 271.0244,71.0825 Q269.6797,71.0825 268.9949,72.1492 Q268.3101,73.2158 268.3101,75.3159 Q268.3101,77.4077 268.9949,78.4744 Q269.6797,79.541 271.0244,79.541 Q271.6553,79.541 272.2488,79.2712 Q272.8423,79.0015 273.4731,78.4204 Z "/><text fill="#000000" font-family="sans-serif" font-size="12" lengthAdjust="spacingAndGlyphs" textLength="52" x="285" y="79.5352">GrpcApp</text><!--class WebApi--><rect fill="#FEFECE" filter="url(#f9b4i46j72gwd)" height="32" id="WebApi" style="stroke: #A80036; stroke-width: 1.5;" width="76" x="375" y="166"/><ellipse cx="390" cy="182" fill="#ADD1B2" rx="11" ry="11" style="stroke: #A80036; stroke-width: 1.0;"/><path d="M392.4731,188.1431 Q391.8921,188.4419 391.2529,188.5913 Q390.6138,188.7407 389.9082,188.7407 Q387.4014,188.7407 386.0815,187.0889 Q384.7617,185.437 384.7617,182.3159 Q384.7617,179.1865 386.0815,177.5347 Q387.4014,175.8828 389.9082,175.8828 Q390.6138,175.8828 391.2612,176.0322 Q391.9087,176.1816 392.4731,176.4805 L392.4731,179.2031 Q391.8423,178.6221 391.2488,178.3523 Q390.6553,178.0825 390.0244,178.0825 Q388.6797,178.0825 387.9949,179.1492 Q387.3101,180.2158 387.3101,182.3159 Q387.3101,184.4077 387.9949,185.4744 Q388.6797,186.541 390.0244,186.541 Q390.6553,186.541 391.2488,186.2712 Q391.8423,186.0015 392.4731,185.4204 Z "/><text fill="#000000" font-family="sans-serif" font-size="12" lengthAdjust="spacingAndGlyphs" textLength="44" x="404" y="186.5352">WebApi</text><!--class GrpcApi--><rect fill="#D3D3D3" filter="url(#f9b4i46j72gwd)" height="32" id="GrpcApi" style="stroke: #A80036; stroke-width: 1.5;" width="79" x="260.5" y="166"/><rect fill="#D3D3D3" height="32" style="stroke: #A80036; stroke-width: 1.5;" width="79" x="260.5" y="166"/><ellipse cx="275.5" cy="182" fill="#ADD1B2" rx="11" ry="11" style="stroke: #A80036; stroke-width: 1.0;"/><path d="M277.9731,188.1431 Q277.3921,188.4419 276.7529,188.5913 Q276.1138,188.7407 275.4082,188.7407 Q272.9014,188.7407 271.5815,187.0889 Q270.2617,185.437 270.2617,182.3159 Q270.2617,179.1865 271.5815,177.5347 Q272.9014,175.8828 275.4082,175.8828 Q276.1138,175.8828 276.7612,176.0322 Q277.4087,176.1816 277.9731,176.4805 L277.9731,179.2031 Q277.3423,178.6221 276.7488,178.3523 Q276.1553,178.0825 275.5244,178.0825 Q274.1797,178.0825 273.4949,179.1492 Q272.8101,180.2158 272.8101,182.3159 Q272.8101,184.4077 273.4949,185.4744 Q274.1797,186.541 275.5244,186.541 Q276.1553,186.541 276.7488,186.2712 Q277.3423,186.0015 277.9731,185.4204 Z "/><text fill="#000000" font-family="sans-serif" font-size="12" lengthAdjust="spacingAndGlyphs" textLength="47" x="289.5" y="186.5352">GrpcApi</text><!--class UserService--><rect fill="#FEFECE" filter="url(#f9b4i46j72gwd)" height="32" id="UserService" style="stroke: #A80036; stroke-width: 1.5;" width="98" x="444" y="316"/><ellipse cx="459" cy="332" fill="#ADD1B2" rx="11" ry="11" style="stroke: #A80036; stroke-width: 1.0;"/><path d="M461.4731,338.1431 Q460.8921,338.4419 460.2529,338.5913 Q459.6138,338.7407 458.9082,338.7407 Q456.4014,338.7407 455.0815,337.0889 Q453.7617,335.437 453.7617,332.3159 Q453.7617,329.1865 455.0815,327.5347 Q456.4014,325.8828 458.9082,325.8828 Q459.6138,325.8828 460.2612,326.0322 Q460.9087,326.1816 461.4731,326.4805 L461.4731,329.2031 Q460.8423,328.6221 460.2488,328.3523 Q459.6553,328.0825 459.0244,328.0825 Q457.6797,328.0825 456.9949,329.1492 Q456.3101,330.2158 456.3101,332.3159 Q456.3101,334.4077 456.9949,335.4744 Q457.6797,336.541 459.0244,336.541 Q459.6553,336.541 460.2488,336.2712 Q460.8423,336.0015 461.4731,335.4204 Z "/><text fill="#000000" font-family="sans-serif" font-size="12" lengthAdjust="spacingAndGlyphs" textLength="66" x="473" y="336.5352">UserService</text><!--class UserCmd--><rect fill="#FEFECE" filter="url(#f9b4i46j72gwd)" height="32" id="UserCmd" style="stroke: #A80036; stroke-width: 1.5;" width="85" x="323.5" y="316"/><ellipse cx="338.5" cy="332" fill="#ADD1B2" rx="11" ry="11" style="stroke: #A80036; stroke-width: 1.0;"/><path d="M340.9731,338.1431 Q340.3921,338.4419 339.7529,338.5913 Q339.1138,338.7407 338.4082,338.7407 Q335.9014,338.7407 334.5815,337.0889 Q333.2617,335.437 333.2617,332.3159 Q333.2617,329.1865 334.5815,327.5347 Q335.9014,325.8828 338.4082,325.8828 Q339.1138,325.8828 339.7612,326.0322 Q340.4087,326.1816 340.9731,326.4805 L340.9731,329.2031 Q340.3423,328.6221 339.7488,328.3523 Q339.1553,328.0825 338.5244,328.0825 Q337.1797,328.0825 336.4949,329.1492 Q335.8101,330.2158 335.8101,332.3159 Q335.8101,334.4077 336.4949,335.4744 Q337.1797,336.541 338.5244,336.541 Q339.1553,336.541 339.7488,336.2712 Q340.3423,336.0015 340.9731,335.4204 Z "/><text fill="#000000" font-family="sans-serif" font-size="12" lengthAdjust="spacingAndGlyphs" textLength="53" x="352.5" y="336.5352">UserCmd</text><!--class MchDB--><rect fill="#FEFECE" filter="url(#f9b4i46j72gwd)" height="32" id="MchDB" style="stroke: #A80036; stroke-width: 1.5;" width="71" x="339.5" y="408"/><ellipse cx="354.5" cy="424" fill="#B4A7E5" rx="11" ry="11" style="stroke: #A80036; stroke-width: 1.0;"/><path d="M350.9277,420.2651 L350.9277,418.1069 L358.3071,418.1069 L358.3071,420.2651 L355.8418,420.2651 L355.8418,428.3418 L358.3071,428.3418 L358.3071,430.5 L350.9277,430.5 L350.9277,428.3418 L353.3931,428.3418 L353.3931,420.2651 Z "/><text fill="#000000" font-family="sans-serif" font-size="12" font-style="italic" lengthAdjust="spacingAndGlyphs" textLength="39" x="368.5" y="428.5352">MchDB</text><!--class Passport--><rect fill="#FEFECE" filter="url(#f9b4i46j72gwd)" height="32" id="Passport" style="stroke: #A80036; stroke-width: 1.5;" width="82" x="452" y="408"/><ellipse cx="467" cy="424" fill="#B4A7E5" rx="11" ry="11" style="stroke: #A80036; stroke-width: 1.0;"/><path d="M463.4277,420.2651 L463.4277,418.1069 L470.8071,418.1069 L470.8071,420.2651 L468.3418,420.2651 L468.3418,428.3418 L470.8071,428.3418 L470.8071,430.5 L463.4277,430.5 L463.4277,428.3418 L465.8931,428.3418 L465.8931,420.2651 Z "/><text fill="#000000" font-family="sans-serif" font-size="12" font-style="italic" lengthAdjust="spacingAndGlyphs" textLength="50" x="481" y="428.5352">Passport</text><!--class FileService--><rect fill="#FEFECE" filter="url(#f9b4i46j72gwd)" height="32" id="FileService" style="stroke: #A80036; stroke-width: 1.5;" width="91" x="175.5" y="316"/><ellipse cx="190.5" cy="332" fill="#ADD1B2" rx="11" ry="11" style="stroke: #A80036; stroke-width: 1.0;"/><path d="M192.9731,338.1431 Q192.3921,338.4419 191.7529,338.5913 Q191.1138,338.7407 190.4082,338.7407 Q187.9014,338.7407 186.5815,337.0889 Q185.2617,335.437 185.2617,332.3159 Q185.2617,329.1865 186.5815,327.5347 Q187.9014,325.8828 190.4082,325.8828 Q191.1138,325.8828 191.7612,326.0322 Q192.4087,326.1816 192.9731,326.4805 L192.9731,329.2031 Q192.3423,328.6221 191.7488,328.3523 Q191.1553,328.0825 190.5244,328.0825 Q189.1797,328.0825 188.4949,329.1492 Q187.8101,330.2158 187.8101,332.3159 Q187.8101,334.4077 188.4949,335.4744 Q189.1797,336.541 190.5244,336.541 Q191.1553,336.541 191.7488,336.2712 Q192.3423,336.0015 192.9731,335.4204 Z "/><text fill="#000000" font-family="sans-serif" font-size="12" lengthAdjust="spacingAndGlyphs" textLength="59" x="204.5" y="336.5352">FileService</text><!--class FileCmd--><rect fill="#FEFECE" filter="url(#f9b4i46j72gwd)" height="32" id="FileCmd" style="stroke: #A80036; stroke-width: 1.5;" width="78" x="62" y="316"/><ellipse cx="77" cy="332" fill="#ADD1B2" rx="11" ry="11" style="stroke: #A80036; stroke-width: 1.0;"/><path d="M79.4731,338.1431 Q78.8921,338.4419 78.2529,338.5913 Q77.6138,338.7407 76.9082,338.7407 Q74.4014,338.7407 73.0815,337.0889 Q71.7617,335.437 71.7617,332.3159 Q71.7617,329.1865 73.0815,327.5347 Q74.4014,325.8828 76.9082,325.8828 Q77.6138,325.8828 78.2612,326.0322 Q78.9087,326.1816 79.4731,326.4805 L79.4731,329.2031 Q78.8423,328.6221 78.2488,328.3523 Q77.6553,328.0825 77.0244,328.0825 Q75.6797,328.0825 74.9949,329.1492 Q74.3101,330.2158 74.3101,332.3159 Q74.3101,334.4077 74.9949,335.4744 Q75.6797,336.541 77.0244,336.541 Q77.6553,336.541 78.2488,336.2712 Q78.8423,336.0015 79.4731,335.4204 Z "/><text fill="#000000" font-family="sans-serif" font-size="12" lengthAdjust="spacingAndGlyphs" textLength="46" x="91" y="336.5352">FileCmd</text><!--class HBase--><rect fill="#FEFECE" filter="url(#f9b4i46j72gwd)" height="32" id="HBase" style="stroke: #A80036; stroke-width: 1.5;" width="68" x="107" y="408"/><ellipse cx="122" cy="424" fill="#B4A7E5" rx="11" ry="11" style="stroke: #A80036; stroke-width: 1.0;"/><path d="M118.4277,420.2651 L118.4277,418.1069 L125.8071,418.1069 L125.8071,420.2651 L123.3418,420.2651 L123.3418,428.3418 L125.8071,428.3418 L125.8071,430.5 L118.4277,430.5 L118.4277,428.3418 L120.8931,428.3418 L120.8931,420.2651 Z "/><text fill="#000000" font-family="sans-serif" font-size="12" font-style="italic" lengthAdjust="spacingAndGlyphs" textLength="36" x="136" y="428.5352">HBase</text><!--class OSS--><rect fill="#FEFECE" filter="url(#f9b4i46j72gwd)" height="32" id="OSS" style="stroke: #A80036; stroke-width: 1.5;" width="53" x="212.5" y="408"/><ellipse cx="227.5" cy="424" fill="#B4A7E5" rx="11" ry="11" style="stroke: #A80036; stroke-width: 1.0;"/><path d="M223.9277,420.2651 L223.9277,418.1069 L231.3071,418.1069 L231.3071,420.2651 L228.8418,420.2651 L228.8418,428.3418 L231.3071,428.3418 L231.3071,430.5 L223.9277,430.5 L223.9277,428.3418 L226.3931,428.3418 L226.3931,420.2651 Z "/><text fill="#000000" font-family="sans-serif" font-size="12" font-style="italic" lengthAdjust="spacingAndGlyphs" textLength="21" x="241.5" y="428.5352">OSS</text><!--class HBaseImpl--><rect fill="#FEFECE" filter="url(#f9b4i46j72gwd)" height="32" id="HBaseImpl" style="stroke: #A80036; stroke-width: 1.5;" width="93" x="90.5" y="539"/><ellipse cx="105.5" cy="555" fill="#ADD1B2" rx="11" ry="11" style="stroke: #A80036; stroke-width: 1.0;"/><path d="M107.9731,561.1431 Q107.3921,561.4419 106.7529,561.5913 Q106.1138,561.7407 105.4082,561.7407 Q102.9014,561.7407 101.5815,560.0889 Q100.2617,558.437 100.2617,555.3159 Q100.2617,552.1865 101.5815,550.5347 Q102.9014,548.8828 105.4082,548.8828 Q106.1138,548.8828 106.7612,549.0322 Q107.4087,549.1816 107.9731,549.4805 L107.9731,552.2031 Q107.3423,551.6221 106.7488,551.3523 Q106.1553,551.0825 105.5244,551.0825 Q104.1797,551.0825 103.4949,552.1492 Q102.8101,553.2158 102.8101,555.3159 Q102.8101,557.4077 103.4949,558.4744 Q104.1797,559.541 105.5244,559.541 Q106.1553,559.541 106.7488,559.2712 Q107.3423,559.0015 107.9731,558.4204 Z "/><text fill="#000000" font-family="sans-serif" font-size="12" lengthAdjust="spacingAndGlyphs" textLength="61" x="119.5" y="559.5352">HBaseImpl</text><!--class DBImpl--><rect fill="#FEFECE" filter="url(#f9b4i46j72gwd)" height="32" id="DBImpl" style="stroke: #A80036; stroke-width: 1.5;" width="73" x="332.5" y="539"/><ellipse cx="347.5" cy="555" fill="#ADD1B2" rx="11" ry="11" style="stroke: #A80036; stroke-width: 1.0;"/><path d="M349.9731,561.1431 Q349.3921,561.4419 348.7529,561.5913 Q348.1138,561.7407 347.4082,561.7407 Q344.9014,561.7407 343.5815,560.0889 Q342.2617,558.437 342.2617,555.3159 Q342.2617,552.1865 343.5815,550.5347 Q344.9014,548.8828 347.4082,548.8828 Q348.1138,548.8828 348.7612,549.0322 Q349.4087,549.1816 349.9731,549.4805 L349.9731,552.2031 Q349.3423,551.6221 348.7488,551.3523 Q348.1553,551.0825 347.5244,551.0825 Q346.1797,551.0825 345.4949,552.1492 Q344.8101,553.2158 344.8101,555.3159 Q344.8101,557.4077 345.4949,558.4744 Q346.1797,559.541 347.5244,559.541 Q348.1553,559.541 348.7488,559.2712 Q349.3423,559.0015 349.9731,558.4204 Z "/><text fill="#000000" font-family="sans-serif" font-size="12" lengthAdjust="spacingAndGlyphs" textLength="41" x="361.5" y="559.5352">DBImpl</text><!--class OSSImpl--><rect fill="#FEFECE" filter="url(#f9b4i46j72gwd)" height="32" id="OSSImpl" style="stroke: #A80036; stroke-width: 1.5;" width="78" x="219" y="539"/><ellipse cx="234" cy="555" fill="#ADD1B2" rx="11" ry="11" style="stroke: #A80036; stroke-width: 1.0;"/><path d="M236.4731,561.1431 Q235.8921,561.4419 235.2529,561.5913 Q234.6138,561.7407 233.9082,561.7407 Q231.4014,561.7407 230.0815,560.0889 Q228.7617,558.437 228.7617,555.3159 Q228.7617,552.1865 230.0815,550.5347 Q231.4014,548.8828 233.9082,548.8828 Q234.6138,548.8828 235.2612,549.0322 Q235.9087,549.1816 236.4731,549.4805 L236.4731,552.2031 Q235.8423,551.6221 235.2488,551.3523 Q234.6553,551.0825 234.0244,551.0825 Q232.6797,551.0825 231.9949,552.1492 Q231.3101,553.2158 231.3101,555.3159 Q231.3101,557.4077 231.9949,558.4744 Q232.6797,559.541 234.0244,559.541 Q234.6553,559.541 235.2488,559.2712 Q235.8423,559.0015 236.4731,558.4204 Z "/><text fill="#000000" font-family="sans-serif" font-size="12" lengthAdjust="spacingAndGlyphs" textLength="46" x="248" y="559.5352">OSSImpl</text><!--class PassportImpl--><rect fill="#FEFECE" filter="url(#f9b4i46j72gwd)" height="32" id="PassportImpl" style="stroke: #A80036; stroke-width: 1.5;" width="107" x="440.5" y="539"/><ellipse cx="455.5" cy="555" fill="#ADD1B2" rx="11" ry="11" style="stroke: #A80036; stroke-width: 1.0;"/><path d="M457.9731,561.1431 Q457.3921,561.4419 456.7529,561.5913 Q456.1138,561.7407 455.4082,561.7407 Q452.9014,561.7407 451.5815,560.0889 Q450.2617,558.437 450.2617,555.3159 Q450.2617,552.1865 451.5815,550.5347 Q452.9014,548.8828 455.4082,548.8828 Q456.1138,548.8828 456.7612,549.0322 Q457.4087,549.1816 457.9731,549.4805 L457.9731,552.2031 Q457.3423,551.6221 456.7488,551.3523 Q456.1553,551.0825 455.5244,551.0825 Q454.1797,551.0825 453.4949,552.1492 Q452.8101,553.2158 452.8101,555.3159 Q452.8101,557.4077 453.4949,558.4744 Q454.1797,559.541 455.5244,559.541 Q456.1553,559.541 456.7488,559.2712 Q457.3423,559.0015 457.9731,558.4204 Z "/><text fill="#000000" font-family="sans-serif" font-size="12" lengthAdjust="spacingAndGlyphs" textLength="75" x="469.5" y="559.5352">PassportImpl</text><!--link UserService to MchDB--><path d="M473.25,348.06 C452.83,363.64 420.93,387.97 399.05,404.66 " fill="none" id="UserService-MchDB" style="stroke: #A80036; stroke-width: 1.0;"/><polygon fill="#A80036" points="394.81,407.89,404.396,405.6298,398.7911,404.8649,399.5559,399.26,394.81,407.89" style="stroke: #A80036; stroke-width: 1.0;"/><!--link UserService to Passport--><path d="M493,348.27 C493,363.23 493,386.12 493,402.63 " fill="none" id="UserService-Passport" style="stroke: #A80036; stroke-width: 1.0;"/><polygon fill="#A80036" points="493,407.96,497,398.96,493,402.96,489,398.96,493,407.96" style="stroke: #A80036; stroke-width: 1.0;"/><!--link UserCmd to UserService--><path d="M408.66,332 C418.67,332 428.68,332 438.68,332 " fill="none" id="UserCmd-UserService" style="stroke: #A80036; stroke-width: 1.0;"/><polygon fill="#A80036" points="443.91,332,434.91,328,438.91,332,434.91,336,443.91,332" style="stroke: #A80036; stroke-width: 1.0;"/><!--link FileService to HBase--><path d="M207.43,348.27 C193.79,363.62 172.72,387.32 157.97,403.9 " fill="none" id="FileService-HBase" style="stroke: #A80036; stroke-width: 1.0;"/><polygon fill="#A80036" points="154.37,407.96,163.3312,403.8738,157.6847,404.2167,157.3418,398.5702,154.37,407.96" style="stroke: #A80036; stroke-width: 1.0;"/><!--link FileService to OSS--><path d="M224.05,348.27 C227.07,363.36 231.7,386.52 235.01,403.06 " fill="none" id="FileService-OSS" style="stroke: #A80036; stroke-width: 1.0;"/><polygon fill="#A80036" points="235.99,407.96,238.1419,398.3491,235.0067,403.0576,230.2981,399.9224,235.99,407.96" style="stroke: #A80036; stroke-width: 1.0;"/><!--link FileCmd to FileService--><path d="M140.38,332 C150.3,332 160.22,332 170.14,332 " fill="none" id="FileCmd-FileService" style="stroke: #A80036; stroke-width: 1.0;"/><polygon fill="#A80036" points="175.33,332,166.33,328,170.33,332,166.33,336,175.33,332" style="stroke: #A80036; stroke-width: 1.0;"/><!--link HttpApp to WebApi--><path d="M415.57,91.04 C415.05,109.37 414.16,140.39 413.58,160.79 " fill="none" id="HttpApp-WebApi" style="stroke: #A80036; stroke-width: 1.0;"/><polygon fill="#A80036" points="413.43,165.98,417.6854,157.0979,413.5728,160.982,409.6887,156.8694,413.43,165.98" style="stroke: #A80036; stroke-width: 1.0;"/><!--link WebApi to UserService--><path d="M421.11,198.01 C435.67,224.93 466.2,281.43 482.4,311.38 " fill="none" id="WebApi-UserService" style="stroke: #A80036; stroke-width: 1.0;"/><polygon fill="#A80036" points="484.87,315.95,484.0965,306.1316,482.4867,311.5545,477.0638,309.9448,484.87,315.95" style="stroke: #A80036; stroke-width: 1.0;"/><!--link WebApi to FileService--><path d="M395.55,198.24 C385.06,206.58 371.06,216.33 357,222 C336.13,230.42 326.62,218.97 307,230 C272.74,249.25 245.95,287.71 231.89,311.22 " fill="none" id="WebApi-FileService" style="stroke: #A80036; stroke-width: 1.0;"/><polygon fill="#A80036" points="229.24,315.71,237.2559,309.9876,231.7788,311.4025,230.3639,305.9255,229.24,315.71" style="stroke: #A80036; stroke-width: 1.0;"/><!--link GrpcApp to GrpcApi--><path d="M298.29,91.04 C298.64,109.37 299.23,140.39 299.61,160.79 " fill="none" id="GrpcApp-GrpcApi" style="stroke: #A80036; stroke-width: 1.0;"/><polygon fill="#A80036" points="299.71,165.98,303.5292,156.9018,299.61,160.981,295.5308,157.0618,299.71,165.98" style="stroke: #A80036; stroke-width: 1.0;"/><!--link GrpcApi to UserService--><path d="M317.57,198.06 C328.48,206.55 343.21,216.52 358,222 C386.54,232.56 400.07,214.07 426,230 C456.63,248.82 476.22,287.51 485.86,311.16 " fill="none" id="GrpcApi-UserService" style="stroke: #A80036; stroke-width: 1.0;"/><polygon fill="#A80036" points="487.77,315.96,488.1779,306.1196,485.9303,311.3108,480.7391,309.0632,487.77,315.96" style="stroke: #A80036; stroke-width: 1.0;"/><!--link GrpcApi to FileService--><path d="M291.99,198.01 C277.62,224.93 247.46,281.43 231.47,311.38 " fill="none" id="GrpcApi-FileService" style="stroke: #A80036; stroke-width: 1.0;"/><polygon fill="#A80036" points="229.03,315.95,236.7978,309.8951,231.3852,311.5394,229.7408,306.1268,229.03,315.95" style="stroke: #A80036; stroke-width: 1.0;"/><!--link MchDB to DBImpl--><path d="M373.35,460.41 C372.16,486.06 370.61,519.47 369.71,538.65 " fill="none" id="MchDB-DBImpl" style="stroke: #A80036; stroke-width: 1.0;"/><polygon fill="none" points="366.38,459.7,374.3,440.05,380.36,460.35,366.38,459.7" style="stroke: #A80036; stroke-width: 1.0;"/><!--link Passport to PassportImpl--><path d="M493.27,460.41 C493.47,486.06 493.73,519.47 493.88,538.65 " fill="none" id="Passport-PassportImpl" style="stroke: #A80036; stroke-width: 1.0;"/><polygon fill="none" points="486.27,460.1,493.12,440.05,500.27,460,486.27,460.1" style="stroke: #A80036; stroke-width: 1.0;"/><!--link HBase to HBaseImpl--><path d="M139.9,460.41 C139.11,486.06 138.07,519.47 137.48,538.65 " fill="none" id="HBase-HBaseImpl" style="stroke: #A80036; stroke-width: 1.0;"/><polygon fill="none" points="132.92,459.82,140.53,440.05,146.91,460.26,132.92,459.82" style="stroke: #A80036; stroke-width: 1.0;"/><!--link OSS to OSSImpl--><path d="M244.16,460.02 C247.94,485.72 252.9,519.37 255.74,538.65 " fill="none" id="OSS-OSSImpl" style="stroke: #A80036; stroke-width: 1.0;"/><polygon fill="none" points="237.21,460.86,241.22,440.05,251.06,458.82,237.21,460.86" style="stroke: #A80036; stroke-width: 1.0;"/><!--
@startuml
hide members

rectangle application {
    class HttpApp
    class GrpcApp #lightgray
}

rectangle api {
    class WebApi
    class GrpcApi #lightgray
}

rectangle service {
    package user {
        class UserService
        class UserCmd
        interface MchDB
        interface Passport
        UserService - -> MchDB
        UserService - -> Passport
        UserCmd -> UserService
    }
    package file {
        class FileService
        class FileCmd
        interface HBase
        interface OSS
        FileService - -> HBase
        FileService - -> OSS
        FileCmd -> FileService
    }
}

rectangle dependency {
    class HBaseImpl
    class DBImpl
    class OSSImpl
    class PassportImpl
}

HttpApp - -> WebApi
WebApi - -> UserService
WebApi - -> FileService

GrpcApp - -> GrpcApi
GrpcApi - -> UserService
GrpcApi - -> FileService

MchDB <|- - DBImpl
Passport <|- - PassportImpl
HBase <|- -  HBaseImpl
OSS <|- - OSSImpl

@enduml

PlantUML version 1.2019.06(Sat May 25 01:10:25 CST 2019)
(GPL source distribution)
Java Runtime: OpenJDK Runtime Environment
JVM: OpenJDK 64-Bit Server VM
Java Version: 11.0.5+10
Operating System: Mac OS X
OS Version: 10.14.6
Default Encoding: UTF-8
Language: zh
Country: CN
--></g></svg>