<?xml version="1.0" encoding="UTF-8" standalone="no"?><svg xmlns="http://www.w3.org/2000/svg" xmlns:xlink="http://www.w3.org/1999/xlink" contentScriptType="application/ecmascript" contentStyleType="text/css" height="491px" preserveAspectRatio="none" style="width:272px;height:491px;" version="1.1" viewBox="0 0 272 491" width="272px" zoomAndPan="magnify"><defs><filter height="300%" id="f1btr2ex6qc6n2" width="300%" x="-1" y="-1"><feGaussianBlur result="blurOut" stdDeviation="2.0"/><feColorMatrix in="blurOut" result="blurOut2" type="matrix" values="0 0 0 0 0 0 0 0 0 0 0 0 0 0 0 0 0 0 .4 0"/><feOffset dx="4.0" dy="4.0" in="blurOut2" result="blurOut3"/><feBlend in="SourceGraphic" in2="blurOut3" mode="normal"/></filter></defs><g><!--cluster controller--><rect fill="#FFFFFF" filter="url(#f1btr2ex6qc6n2)" height="83" style="stroke: #000000; stroke-width: 1.5;" width="146" x="60" y="24"/><text fill="#000000" font-family="sans-serif" font-size="14" font-weight="bold" lengthAdjust="spacingAndGlyphs" textLength="70" x="98" y="39.5352">controller</text><!--cluster service--><rect fill="#FFFFFF" filter="url(#f1btr2ex6qc6n2)" height="150" style="stroke: #000000; stroke-width: 1.5;" width="172" x="47" y="131"/><text fill="#000000" font-family="sans-serif" font-size="14" font-weight="bold" lengthAdjust="spacingAndGlyphs" textLength="50" x="108" y="146.5352">service</text><!--cluster file--><polygon fill="#FFFFFF" filter="url(#f1btr2ex6qc6n2)" points="71,174,101,174,108,196.4883,195,196.4883,195,257,71,257,71,174" style="stroke: #000000; stroke-width: 1.5;"/><line style="stroke: #000000; stroke-width: 1.5;" x1="71" x2="108" y1="196.4883" y2="196.4883"/><text fill="#000000" font-family="sans-serif" font-size="14" font-weight="bold" lengthAdjust="spacingAndGlyphs" textLength="24" x="75" y="189.5352">file</text><!--cluster dependency--><rect fill="#FFFFFF" filter="url(#f1btr2ex6qc6n2)" height="175" style="stroke: #000000; stroke-width: 1.5;" width="239" x="22" y="305"/><text fill="#000000" font-family="sans-serif" font-size="14" font-weight="bold" lengthAdjust="spacingAndGlyphs" textLength="84" x="99.5" y="320.5352">dependency</text><!--class WebController--><rect fill="#FEFECE" filter="url(#f1btr2ex6qc6n2)" height="32" id="WebController" style="stroke: #A80036; stroke-width: 1.5;" width="113" x="76.5" y="59"/><ellipse cx="91.5" cy="75" fill="#ADD1B2" rx="11" ry="11" style="stroke: #A80036; stroke-width: 1.0;"/><path d="M93.9731,81.1431 Q93.3921,81.4419 92.7529,81.5913 Q92.1138,81.7407 91.4082,81.7407 Q88.9014,81.7407 87.5815,80.0889 Q86.2617,78.437 86.2617,75.3159 Q86.2617,72.1865 87.5815,70.5347 Q88.9014,68.8828 91.4082,68.8828 Q92.1138,68.8828 92.7612,69.0322 Q93.4087,69.1816 93.9731,69.4805 L93.9731,72.2031 Q93.3423,71.6221 92.7488,71.3523 Q92.1553,71.0825 91.5244,71.0825 Q90.1797,71.0825 89.4949,72.1492 Q88.8101,73.2158 88.8101,75.3159 Q88.8101,77.4077 89.4949,78.4744 Q90.1797,79.541 91.5244,79.541 Q92.1553,79.541 92.7488,79.2712 Q93.3423,79.0015 93.9731,78.4204 Z "/><text fill="#000000" font-family="sans-serif" font-size="12" lengthAdjust="spacingAndGlyphs" textLength="81" x="105.5" y="79.5352">WebController</text><!--class FileService--><rect fill="#FEFECE" filter="url(#f1btr2ex6qc6n2)" height="32" id="FileService" style="stroke: #A80036; stroke-width: 1.5;" width="91" x="87.5" y="209"/><ellipse cx="102.5" cy="225" fill="#ADD1B2" rx="11" ry="11" style="stroke: #A80036; stroke-width: 1.0;"/><path d="M104.9731,231.1431 Q104.3921,231.4419 103.7529,231.5913 Q103.1138,231.7407 102.4082,231.7407 Q99.9014,231.7407 98.5815,230.0889 Q97.2617,228.437 97.2617,225.3159 Q97.2617,222.1865 98.5815,220.5347 Q99.9014,218.8828 102.4082,218.8828 Q103.1138,218.8828 103.7612,219.0322 Q104.4087,219.1816 104.9731,219.4805 L104.9731,222.2031 Q104.3423,221.6221 103.7488,221.3523 Q103.1553,221.0825 102.5244,221.0825 Q101.1797,221.0825 100.4949,222.1492 Q99.8101,223.2158 99.8101,225.3159 Q99.8101,227.4077 100.4949,228.4744 Q101.1797,229.541 102.5244,229.541 Q103.1553,229.541 103.7488,229.2712 Q104.3423,229.0015 104.9731,228.4204 Z "/><text fill="#000000" font-family="sans-serif" font-size="12" lengthAdjust="spacingAndGlyphs" textLength="59" x="116.5" y="229.5352">FileService</text><!--class HBase--><rect fill="#FEFECE" filter="url(#f1btr2ex6qc6n2)" height="32" id="HBase" style="stroke: #A80036; stroke-width: 1.5;" width="68" x="157" y="340"/><ellipse cx="172" cy="356" fill="#B4A7E5" rx="11" ry="11" style="stroke: #A80036; stroke-width: 1.0;"/><path d="M168.4277,352.2651 L168.4277,350.1069 L175.8071,350.1069 L175.8071,352.2651 L173.3418,352.2651 L173.3418,360.3418 L175.8071,360.3418 L175.8071,362.5 L168.4277,362.5 L168.4277,360.3418 L170.8931,360.3418 L170.8931,352.2651 Z "/><text fill="#000000" font-family="sans-serif" font-size="12" font-style="italic" lengthAdjust="spacingAndGlyphs" textLength="36" x="186" y="360.5352">HBase</text><!--class OSS--><rect fill="#FEFECE" filter="url(#f1btr2ex6qc6n2)" height="32" id="OSS" style="stroke: #A80036; stroke-width: 1.5;" width="53" x="56.5" y="340"/><ellipse cx="71.5" cy="356" fill="#B4A7E5" rx="11" ry="11" style="stroke: #A80036; stroke-width: 1.0;"/><path d="M67.9277,352.2651 L67.9277,350.1069 L75.3071,350.1069 L75.3071,352.2651 L72.8418,352.2651 L72.8418,360.3418 L75.3071,360.3418 L75.3071,362.5 L67.9277,362.5 L67.9277,360.3418 L70.3931,360.3418 L70.3931,352.2651 Z "/><text fill="#000000" font-family="sans-serif" font-size="12" font-style="italic" lengthAdjust="spacingAndGlyphs" textLength="21" x="85.5" y="360.5352">OSS</text><!--class HBaseImpl--><rect fill="#FEFECE" filter="url(#f1btr2ex6qc6n2)" height="32" id="HBaseImpl" style="stroke: #A80036; stroke-width: 1.5;" width="93" x="151.5" y="432"/><ellipse cx="166.5" cy="448" fill="#ADD1B2" rx="11" ry="11" style="stroke: #A80036; stroke-width: 1.0;"/><path d="M168.9731,454.1431 Q168.3921,454.4419 167.7529,454.5913 Q167.1138,454.7407 166.4082,454.7407 Q163.9014,454.7407 162.5815,453.0889 Q161.2617,451.437 161.2617,448.3159 Q161.2617,445.1865 162.5815,443.5347 Q163.9014,441.8828 166.4082,441.8828 Q167.1138,441.8828 167.7612,442.0322 Q168.4087,442.1816 168.9731,442.4805 L168.9731,445.2031 Q168.3423,444.6221 167.7488,444.3523 Q167.1553,444.0825 166.5244,444.0825 Q165.1797,444.0825 164.4949,445.1492 Q163.8101,446.2158 163.8101,448.3159 Q163.8101,450.4077 164.4949,451.4744 Q165.1797,452.541 166.5244,452.541 Q167.1553,452.541 167.7488,452.2712 Q168.3423,452.0015 168.9731,451.4204 Z "/><text fill="#000000" font-family="sans-serif" font-size="12" lengthAdjust="spacingAndGlyphs" textLength="61" x="180.5" y="452.5352">HBaseImpl</text><!--class OSSImpl--><rect fill="#FEFECE" filter="url(#f1btr2ex6qc6n2)" height="32" id="OSSImpl" style="stroke: #A80036; stroke-width: 1.5;" width="78" x="38" y="432"/><ellipse cx="53" cy="448" fill="#ADD1B2" rx="11" ry="11" style="stroke: #A80036; stroke-width: 1.0;"/><path d="M55.4731,454.1431 Q54.8921,454.4419 54.2529,454.5913 Q53.6138,454.7407 52.9082,454.7407 Q50.4014,454.7407 49.0815,453.0889 Q47.7617,451.437 47.7617,448.3159 Q47.7617,445.1865 49.0815,443.5347 Q50.4014,441.8828 52.9082,441.8828 Q53.6138,441.8828 54.2612,442.0322 Q54.9087,442.1816 55.4731,442.4805 L55.4731,445.2031 Q54.8423,444.6221 54.2488,444.3523 Q53.6553,444.0825 53.0244,444.0825 Q51.6797,444.0825 50.9949,445.1492 Q50.3101,446.2158 50.3101,448.3159 Q50.3101,450.4077 50.9949,451.4744 Q51.6797,452.541 53.0244,452.541 Q53.6553,452.541 54.2488,452.2712 Q54.8423,452.0015 55.4731,451.4204 Z "/><text fill="#000000" font-family="sans-serif" font-size="12" lengthAdjust="spacingAndGlyphs" textLength="46" x="67" y="452.5352">OSSImpl</text><!--link WebController to FileService--><path d="M133,91.01 C133,117.71 133,173.5 133,203.64 " fill="none" id="WebController-FileService" style="stroke: #A80036; stroke-width: 1.0;"/><polygon fill="#A80036" points="133,208.95,137,199.95,133,203.95,129,199.95,133,208.95" style="stroke: #A80036; stroke-width: 1.0;"/><!--link FileService to HBase--><path d="M139.77,241.05 C150.23,264.33 170.35,309.07 182.02,335.03 " fill="none" id="FileService-HBase" style="stroke: #A80036; stroke-width: 1.0;"/><polygon fill="#A80036" points="184.1,339.65,184.0685,329.8012,182.0547,335.0875,176.7685,333.0736,184.1,339.65" style="stroke: #A80036; stroke-width: 1.0;"/><!--link FileService to OSS--><path d="M127.17,241.05 C118.18,264.23 100.95,308.7 90.87,334.7 " fill="none" id="FileService-OSS" style="stroke: #A80036; stroke-width: 1.0;"/><polygon fill="#A80036" points="88.95,339.65,95.9441,332.7159,90.765,334.9911,88.4898,329.8119,88.95,339.65" style="stroke: #A80036; stroke-width: 1.0;"/><!--link HBase to HBaseImpl--><path d="M193.77,392.61 C194.84,406.31 195.99,421.22 196.83,431.96 " fill="none" id="HBase-HBaseImpl" style="stroke: #A80036; stroke-width: 1.0;"/><polygon fill="none" points="186.76,392.75,192.19,372.27,200.72,391.66,186.76,392.75" style="stroke: #A80036; stroke-width: 1.0;"/><!--link OSS to OSSImpl--><path d="M80.63,392.61 C79.71,406.31 78.72,421.22 78,431.96 " fill="none" id="OSS-OSSImpl" style="stroke: #A80036; stroke-width: 1.0;"/><polygon fill="none" points="73.67,391.76,81.98,372.27,87.64,392.69,73.67,391.76" style="stroke: #A80036; stroke-width: 1.0;"/><!--
@startuml
hide members

rectangle controller {
    class WebController
}

rectangle service {
    package file {
        class FileService
    }
}

rectangle dependency {
    interface HBase
    interface OSS
    class HBaseImpl
    class OSSImpl
}

WebController - -> FileService
FileService - -> HBase
FileService - -> OSS


HBase <|- -  HBaseImpl
OSS <|- - OSSImpl
@enduml

PlantUML version 1.2019.06(Sat May 25 01:10:25 CST 2019)
(GPL source distribution)
Java Runtime: OpenJDK Runtime Environment
JVM: OpenJDK 64-Bit Server VM
Java Version: 11.0.5+10
Operating System: Mac OS X
OS Version: 10.14.6
Default Encoding: UTF-8
Language: zh
Country: CN
--></g></svg>