<?xml version="1.0" encoding="UTF-8" standalone="no"?><svg xmlns="http://www.w3.org/2000/svg" xmlns:xlink="http://www.w3.org/1999/xlink" contentScriptType="application/ecmascript" contentStyleType="text/css" height="491px" preserveAspectRatio="none" style="width:274px;height:491px;" version="1.1" viewBox="0 0 274 491" width="274px" zoomAndPan="magnify"><defs><filter height="300%" id="f1ahug8c2pmwqj" width="300%" x="-1" y="-1"><feGaussianBlur result="blurOut" stdDeviation="2.0"/><feColorMatrix in="blurOut" result="blurOut2" type="matrix" values="0 0 0 0 0 0 0 0 0 0 0 0 0 0 0 0 0 0 .4 0"/><feOffset dx="4.0" dy="4.0" in="blurOut2" result="blurOut3"/><feBlend in="SourceGraphic" in2="blurOut3" mode="normal"/></filter></defs><g><!--cluster controller--><rect fill="#FFFFFF" filter="url(#f1ahug8c2pmwqj)" height="83" style="stroke: #000000; stroke-width: 1.5;" width="146" x="67" y="24"/><text fill="#000000" font-family="sans-serif" font-size="14" font-weight="bold" lengthAdjust="spacingAndGlyphs" textLength="70" x="105" y="39.5352">controller</text><!--cluster service--><rect fill="#FFFFFF" filter="url(#f1ahug8c2pmwqj)" height="242" style="stroke: #000000; stroke-width: 1.5;" width="237" x="22" y="131"/><text fill="#000000" font-family="sans-serif" font-size="14" font-weight="bold" lengthAdjust="spacingAndGlyphs" textLength="50" x="115.5" y="146.5352">service</text><!--cluster file--><polygon fill="#FFFFFF" filter="url(#f1ahug8c2pmwqj)" points="46,174,76,174,83,196.4883,235,196.4883,235,349,46,349,46,174" style="stroke: #000000; stroke-width: 1.5;"/><line style="stroke: #000000; stroke-width: 1.5;" x1="46" x2="83" y1="196.4883" y2="196.4883"/><text fill="#000000" font-family="sans-serif" font-size="14" font-weight="bold" lengthAdjust="spacingAndGlyphs" textLength="24" x="50" y="189.5352">file</text><!--cluster dependency--><rect fill="#FFFFFF" filter="url(#f1ahug8c2pmwqj)" height="83" style="stroke: #000000; stroke-width: 1.5;" width="239" x="24" y="397"/><text fill="#000000" font-family="sans-serif" font-size="14" font-weight="bold" lengthAdjust="spacingAndGlyphs" textLength="84" x="101.5" y="412.5352">dependency</text><!--class WebController--><rect fill="#FEFECE" filter="url(#f1ahug8c2pmwqj)" height="32" id="WebController" style="stroke: #A80036; stroke-width: 1.5;" width="113" x="83.5" y="59"/><ellipse cx="98.5" cy="75" fill="#ADD1B2" rx="11" ry="11" style="stroke: #A80036; stroke-width: 1.0;"/><path d="M100.9731,81.1431 Q100.3921,81.4419 99.7529,81.5913 Q99.1138,81.7407 98.4082,81.7407 Q95.9014,81.7407 94.5815,80.0889 Q93.2617,78.437 93.2617,75.3159 Q93.2617,72.1865 94.5815,70.5347 Q95.9014,68.8828 98.4082,68.8828 Q99.1138,68.8828 99.7612,69.0322 Q100.4087,69.1816 100.9731,69.4805 L100.9731,72.2031 Q100.3423,71.6221 99.7488,71.3523 Q99.1553,71.0825 98.5244,71.0825 Q97.1797,71.0825 96.4949,72.1492 Q95.8101,73.2158 95.8101,75.3159 Q95.8101,77.4077 96.4949,78.4744 Q97.1797,79.541 98.5244,79.541 Q99.1553,79.541 99.7488,79.2712 Q100.3423,79.0015 100.9731,78.4204 Z "/><text fill="#000000" font-family="sans-serif" font-size="12" lengthAdjust="spacingAndGlyphs" textLength="81" x="112.5" y="79.5352">WebController</text><!--class FileService--><rect fill="#FEFECE" filter="url(#f1ahug8c2pmwqj)" height="32" id="FileService" style="stroke: #A80036; stroke-width: 1.5;" width="91" x="94.5" y="209"/><ellipse cx="109.5" cy="225" fill="#ADD1B2" rx="11" ry="11" style="stroke: #A80036; stroke-width: 1.0;"/><path d="M111.9731,231.1431 Q111.3921,231.4419 110.7529,231.5913 Q110.1138,231.7407 109.4082,231.7407 Q106.9014,231.7407 105.5815,230.0889 Q104.2617,228.437 104.2617,225.3159 Q104.2617,222.1865 105.5815,220.5347 Q106.9014,218.8828 109.4082,218.8828 Q110.1138,218.8828 110.7612,219.0322 Q111.4087,219.1816 111.9731,219.4805 L111.9731,222.2031 Q111.3423,221.6221 110.7488,221.3523 Q110.1553,221.0825 109.5244,221.0825 Q108.1797,221.0825 107.4949,222.1492 Q106.8101,223.2158 106.8101,225.3159 Q106.8101,227.4077 107.4949,228.4744 Q108.1797,229.541 109.5244,229.541 Q110.1553,229.541 110.7488,229.2712 Q111.3423,229.0015 111.9731,228.4204 Z "/><text fill="#000000" font-family="sans-serif" font-size="12" lengthAdjust="spacingAndGlyphs" textLength="59" x="123.5" y="229.5352">FileService</text><!--class HBase--><rect fill="#FEFECE" filter="url(#f1ahug8c2pmwqj)" height="32" id="HBase" style="stroke: #A80036; stroke-width: 1.5;" width="68" x="62" y="301"/><ellipse cx="77" cy="317" fill="#B4A7E5" rx="11" ry="11" style="stroke: #A80036; stroke-width: 1.0;"/><path d="M73.4277,313.2651 L73.4277,311.1069 L80.8071,311.1069 L80.8071,313.2651 L78.3418,313.2651 L78.3418,321.3418 L80.8071,321.3418 L80.8071,323.5 L73.4277,323.5 L73.4277,321.3418 L75.8931,321.3418 L75.8931,313.2651 Z "/><text fill="#000000" font-family="sans-serif" font-size="12" font-style="italic" lengthAdjust="spacingAndGlyphs" textLength="36" x="91" y="321.5352">HBase</text><!--class OSS--><rect fill="#FEFECE" filter="url(#f1ahug8c2pmwqj)" height="32" id="OSS" style="stroke: #A80036; stroke-width: 1.5;" width="53" x="165.5" y="301"/><ellipse cx="180.5" cy="317" fill="#B4A7E5" rx="11" ry="11" style="stroke: #A80036; stroke-width: 1.0;"/><path d="M176.9277,313.2651 L176.9277,311.1069 L184.3071,311.1069 L184.3071,313.2651 L181.8418,313.2651 L181.8418,321.3418 L184.3071,321.3418 L184.3071,323.5 L176.9277,323.5 L176.9277,321.3418 L179.3931,321.3418 L179.3931,313.2651 Z "/><text fill="#000000" font-family="sans-serif" font-size="12" font-style="italic" lengthAdjust="spacingAndGlyphs" textLength="21" x="194.5" y="321.5352">OSS</text><!--class HBaseImpl--><rect fill="#FEFECE" filter="url(#f1ahug8c2pmwqj)" height="32" id="HBaseImpl" style="stroke: #A80036; stroke-width: 1.5;" width="93" x="40.5" y="432"/><ellipse cx="55.5" cy="448" fill="#ADD1B2" rx="11" ry="11" style="stroke: #A80036; stroke-width: 1.0;"/><path d="M57.9731,454.1431 Q57.3921,454.4419 56.7529,454.5913 Q56.1138,454.7407 55.4082,454.7407 Q52.9014,454.7407 51.5815,453.0889 Q50.2617,451.437 50.2617,448.3159 Q50.2617,445.1865 51.5815,443.5347 Q52.9014,441.8828 55.4082,441.8828 Q56.1138,441.8828 56.7612,442.0322 Q57.4087,442.1816 57.9731,442.4805 L57.9731,445.2031 Q57.3423,444.6221 56.7488,444.3523 Q56.1553,444.0825 55.5244,444.0825 Q54.1797,444.0825 53.4949,445.1492 Q52.8101,446.2158 52.8101,448.3159 Q52.8101,450.4077 53.4949,451.4744 Q54.1797,452.541 55.5244,452.541 Q56.1553,452.541 56.7488,452.2712 Q57.3423,452.0015 57.9731,451.4204 Z "/><text fill="#000000" font-family="sans-serif" font-size="12" lengthAdjust="spacingAndGlyphs" textLength="61" x="69.5" y="452.5352">HBaseImpl</text><!--class OSSImpl--><rect fill="#FEFECE" filter="url(#f1ahug8c2pmwqj)" height="32" id="OSSImpl" style="stroke: #A80036; stroke-width: 1.5;" width="78" x="169" y="432"/><ellipse cx="184" cy="448" fill="#ADD1B2" rx="11" ry="11" style="stroke: #A80036; stroke-width: 1.0;"/><path d="M186.4731,454.1431 Q185.8921,454.4419 185.2529,454.5913 Q184.6138,454.7407 183.9082,454.7407 Q181.4014,454.7407 180.0815,453.0889 Q178.7617,451.437 178.7617,448.3159 Q178.7617,445.1865 180.0815,443.5347 Q181.4014,441.8828 183.9082,441.8828 Q184.6138,441.8828 185.2612,442.0322 Q185.9087,442.1816 186.4731,442.4805 L186.4731,445.2031 Q185.8423,444.6221 185.2488,444.3523 Q184.6553,444.0825 184.0244,444.0825 Q182.6797,444.0825 181.9949,445.1492 Q181.3101,446.2158 181.3101,448.3159 Q181.3101,450.4077 181.9949,451.4744 Q182.6797,452.541 184.0244,452.541 Q184.6553,452.541 185.2488,452.2712 Q185.8423,452.0015 186.4731,451.4204 Z "/><text fill="#000000" font-family="sans-serif" font-size="12" lengthAdjust="spacingAndGlyphs" textLength="46" x="198" y="452.5352">OSSImpl</text><!--link WebController to FileService--><path d="M140,91.01 C140,117.71 140,173.5 140,203.64 " fill="none" id="WebController-FileService" style="stroke: #A80036; stroke-width: 1.0;"/><polygon fill="#A80036" points="140,208.95,144,199.95,140,203.95,136,199.95,140,208.95" style="stroke: #A80036; stroke-width: 1.0;"/><!--link FileService to HBase--><path d="M132.54,241.27 C125.16,256.36 113.84,279.52 105.75,296.06 " fill="none" id="FileService-HBase" style="stroke: #A80036; stroke-width: 1.0;"/><polygon fill="#A80036" points="103.35,300.96,110.8881,294.6215,105.5401,296.4652,103.6964,291.1172,103.35,300.96" style="stroke: #A80036; stroke-width: 1.0;"/><!--link FileService to OSS--><path d="M148.82,241.27 C157.61,256.49 171.15,279.92 180.72,296.48 " fill="none" id="FileService-OSS" style="stroke: #A80036; stroke-width: 1.0;"/><polygon fill="#A80036" points="183.31,300.96,182.2726,291.1659,180.8093,296.6303,175.345,295.167,183.31,300.96" style="stroke: #A80036; stroke-width: 1.0;"/><!--link HBase to HBaseImpl--><path d="M93.56,353.02 C91.76,378.72 89.42,412.37 88.07,431.65 " fill="none" id="HBase-HBaseImpl" style="stroke: #A80036; stroke-width: 1.0;"/><polygon fill="none" points="86.57,352.51,94.95,333.05,100.54,353.49,86.57,352.51" style="stroke: #A80036; stroke-width: 1.0;"/><!--link OSS to OSSImpl--><path d="M196.34,353.02 C199.53,378.72 203.7,412.37 206.1,431.65 " fill="none" id="OSS-OSSImpl" style="stroke: #A80036; stroke-width: 1.0;"/><polygon fill="none" points="189.38,353.76,193.87,333.05,203.28,352.04,189.38,353.76" style="stroke: #A80036; stroke-width: 1.0;"/><!--
@startuml
hide members

rectangle controller {
    class WebController
}

rectangle service {
    package file {
        class FileService
        interface HBase
        interface OSS
    }
}

rectangle dependency {
    
    class HBaseImpl
    class OSSImpl
}

WebController - -> FileService
FileService - -> HBase
FileService - -> OSS


HBase <|- -  HBaseImpl
OSS <|- - OSSImpl
@enduml

PlantUML version 1.2019.06(Sat May 25 01:10:25 CST 2019)
(GPL source distribution)
Java Runtime: OpenJDK Runtime Environment
JVM: OpenJDK 64-Bit Server VM
Java Version: 11.0.5+10
Operating System: Mac OS X
OS Version: 10.14.6
Default Encoding: UTF-8
Language: zh
Country: CN
--></g></svg>