<?xml version="1.0" encoding="UTF-8" standalone="no"?><svg xmlns="http://www.w3.org/2000/svg" xmlns:xlink="http://www.w3.org/1999/xlink" contentScriptType="application/ecmascript" contentStyleType="text/css" height="234px" preserveAspectRatio="none" style="width:248px;height:234px;" version="1.1" viewBox="0 0 248 234" width="248px" zoomAndPan="magnify"><defs><filter height="300%" id="f1tra01061nmda" width="300%" x="-1" y="-1"><feGaussianBlur result="blurOut" stdDeviation="2.0"/><feColorMatrix in="blurOut" result="blurOut2" type="matrix" values="0 0 0 0 0 0 0 0 0 0 0 0 0 0 0 0 0 0 .4 0"/><feOffset dx="4.0" dy="4.0" in="blurOut2" result="blurOut3"/><feBlend in="SourceGraphic" in2="blurOut3" mode="normal"/></filter></defs><g><text fill="#000000" font-family="sans-serif" font-size="18" lengthAdjust="spacingAndGlyphs" textLength="72" x="94" y="17.4023">依赖反转</text><!--cluster MainPkg--><polygon fill="#FFFFFF" filter="url(#f1tra01061nmda)" points="22,45.1992,90,45.1992,97,67.6875,226,67.6875,226,128.1992,22,128.1992,22,45.1992" style="stroke: #000000; stroke-width: 1.5;"/><line style="stroke: #000000; stroke-width: 1.5;" x1="22" x2="97" y1="67.6875" y2="67.6875"/><text fill="#000000" font-family="sans-serif" font-size="14" font-weight="bold" lengthAdjust="spacingAndGlyphs" textLength="62" x="26" y="60.7344">MainPkg</text><!--class IAComp--><rect fill="#FEFECE" filter="url(#f1tra01061nmda)" height="32" id="IAComp" style="stroke: #A80036; stroke-width: 1.5;" width="77" x="132.5" y="80.1992"/><ellipse cx="147.5" cy="96.1992" fill="#B4A7E5" rx="11" ry="11" style="stroke: #A80036; stroke-width: 1.0;"/><path d="M143.9277,92.4644 L143.9277,90.3062 L151.3071,90.3062 L151.3071,92.4644 L148.8418,92.4644 L148.8418,100.541 L151.3071,100.541 L151.3071,102.6992 L143.9277,102.6992 L143.9277,100.541 L146.3931,100.541 L146.3931,92.4644 Z "/><text fill="#000000" font-family="sans-serif" font-size="12" font-style="italic" lengthAdjust="spacingAndGlyphs" textLength="45" x="161.5" y="100.7344">IAComp</text><!--class Main--><rect fill="#FEFECE" filter="url(#f1tra01061nmda)" height="32" id="Main" style="stroke: #A80036; stroke-width: 1.5;" width="59" x="38.5" y="80.1992"/><ellipse cx="53.5" cy="96.1992" fill="#ADD1B2" rx="11" ry="11" style="stroke: #A80036; stroke-width: 1.0;"/><path d="M55.9731,102.3423 Q55.3921,102.6411 54.7529,102.7905 Q54.1138,102.9399 53.4082,102.9399 Q50.9014,102.9399 49.5815,101.2881 Q48.2617,99.6362 48.2617,96.5151 Q48.2617,93.3857 49.5815,91.7339 Q50.9014,90.082 53.4082,90.082 Q54.1138,90.082 54.7612,90.2314 Q55.4087,90.3809 55.9731,90.6797 L55.9731,93.4023 Q55.3423,92.8213 54.7488,92.5515 Q54.1553,92.2817 53.5244,92.2817 Q52.1797,92.2817 51.4949,93.3484 Q50.8101,94.415 50.8101,96.5151 Q50.8101,98.6069 51.4949,99.6736 Q52.1797,100.7402 53.5244,100.7402 Q54.1553,100.7402 54.7488,100.4705 Q55.3423,100.2007 55.9731,99.6196 Z "/><text fill="#000000" font-family="sans-serif" font-size="12" lengthAdjust="spacingAndGlyphs" textLength="27" x="67.5" y="100.7344">Main</text><!--class ACompImpl--><rect fill="#FEFECE" filter="url(#f1tra01061nmda)" height="32" id="ACompImpl" style="stroke: #A80036; stroke-width: 1.5;" width="99" x="69.5" y="191.1992"/><ellipse cx="84.5" cy="207.1992" fill="#ADD1B2" rx="11" ry="11" style="stroke: #A80036; stroke-width: 1.0;"/><path d="M86.9731,213.3423 Q86.3921,213.6411 85.7529,213.7905 Q85.1138,213.9399 84.4082,213.9399 Q81.9014,213.9399 80.5815,212.2881 Q79.2617,210.6362 79.2617,207.5151 Q79.2617,204.3857 80.5815,202.7339 Q81.9014,201.082 84.4082,201.082 Q85.1138,201.082 85.7612,201.2314 Q86.4087,201.3809 86.9731,201.6797 L86.9731,204.4023 Q86.3423,203.8213 85.7488,203.5515 Q85.1553,203.2817 84.5244,203.2817 Q83.1797,203.2817 82.4949,204.3484 Q81.8101,205.415 81.8101,207.5151 Q81.8101,209.6069 82.4949,210.6736 Q83.1797,211.7402 84.5244,211.7402 Q85.1553,211.7402 85.7488,211.4705 Q86.3423,211.2007 86.9731,210.6196 Z "/><text fill="#000000" font-family="sans-serif" font-size="12" lengthAdjust="spacingAndGlyphs" textLength="67" x="98.5" y="211.7344">ACompImpl</text><!--link Main to IAComp--><path d="M97.77,96.1992 C107.6,96.1992 117.42,96.1992 127.25,96.1992 " fill="none" id="Main-IAComp" style="stroke: #A80036; stroke-width: 1.0;"/><polygon fill="#A80036" points="132.38,96.1992,123.38,92.1992,127.38,96.1992,123.38,100.1992,132.38,96.1992" style="stroke: #A80036; stroke-width: 1.0;"/><!--link IAComp to ACompImpl--><path d="M155.1,130.5392 C145.44,150.7692 133.6,175.6092 126.17,191.1692 " fill="none" id="IAComp-ACompImpl" style="stroke: #A80036; stroke-width: 1.0;"/><polygon fill="none" points="148.84,127.3892,163.77,112.3592,161.48,133.4192,148.84,127.3892" style="stroke: #A80036; stroke-width: 1.0;"/><text fill="#000000" font-family="sans-serif" font-size="13" lengthAdjust="spacingAndGlyphs" textLength="26" x="149" y="157.7676">依赖</text><!--link Main to ACompImpl--><path d="M72.43,112.3092 C76.54,125.5092 83.18,145.0492 91,161.1992 C95.12,169.6992 100.44,178.6292 105.33,186.2592 " fill="none" id="Main-ACompImpl" style="stroke: #A80036; stroke-width: 1.0; stroke-dasharray: 7.0,7.0;"/><polygon fill="#A80036" points="108.31,190.8392,106.7612,181.1129,105.5861,186.6463,100.0526,185.4712,108.31,190.8392" style="stroke: #A80036; stroke-width: 1.0;"/><text fill="#000000" font-family="sans-serif" font-size="13" lengthAdjust="spacingAndGlyphs" textLength="26" x="92" y="157.7676">控制</text><!--
@startuml 
hide members
title 依赖反转

package MainPkg {
interface IAComp
Main -> IAComp
}
IAComp <|- - ACompImpl : 依赖
Main ..> ACompImpl :控制
@enduml

PlantUML version 1.2019.06(Sat May 25 01:10:25 CST 2019)
(GPL source distribution)
Java Runtime: OpenJDK Runtime Environment
JVM: OpenJDK 64-Bit Server VM
Java Version: 11.0.5+10
Operating System: Mac OS X
OS Version: 10.14.6
Default Encoding: UTF-8
Language: zh
Country: CN
--></g></svg>