<?xml version="1.0" encoding="UTF-8" standalone="no"?><svg xmlns="http://www.w3.org/2000/svg" xmlns:xlink="http://www.w3.org/1999/xlink" contentScriptType="application/ecmascript" contentStyleType="text/css" height="181px" preserveAspectRatio="none" style="width:209px;height:181px;" version="1.1" viewBox="0 0 209 181" width="209px" zoomAndPan="magnify"><defs><filter height="300%" id="f1r1addnw1tx3k" width="300%" x="-1" y="-1"><feGaussianBlur result="blurOut" stdDeviation="2.0"/><feColorMatrix in="blurOut" result="blurOut2" type="matrix" values="0 0 0 0 0 0 0 0 0 0 0 0 0 0 0 0 0 0 .4 0"/><feOffset dx="4.0" dy="4.0" in="blurOut2" result="blurOut3"/><feBlend in="SourceGraphic" in2="blurOut3" mode="normal"/></filter></defs><g><text fill="#000000" font-family="sans-serif" font-size="18" lengthAdjust="spacingAndGlyphs" textLength="90" x="63.5" y="17.4023">依赖与控制</text><!--class Main--><rect fill="#FEFECE" filter="url(#f1r1addnw1tx3k)" height="32" id="Main" style="stroke: #A80036; stroke-width: 1.5;" width="59" x="64.5" y="29.1992"/><ellipse cx="79.5" cy="45.1992" fill="#ADD1B2" rx="11" ry="11" style="stroke: #A80036; stroke-width: 1.0;"/><path d="M81.9731,51.3423 Q81.3921,51.6411 80.7529,51.7905 Q80.1138,51.9399 79.4082,51.9399 Q76.9014,51.9399 75.5815,50.2881 Q74.2617,48.6362 74.2617,45.5151 Q74.2617,42.3857 75.5815,40.7339 Q76.9014,39.082 79.4082,39.082 Q80.1138,39.082 80.7612,39.2314 Q81.4087,39.3809 81.9731,39.6797 L81.9731,42.4023 Q81.3423,41.8213 80.7488,41.5515 Q80.1553,41.2817 79.5244,41.2817 Q78.1797,41.2817 77.4949,42.3484 Q76.8101,43.415 76.8101,45.5151 Q76.8101,47.6069 77.4949,48.6736 Q78.1797,49.7402 79.5244,49.7402 Q80.1553,49.7402 80.7488,49.4705 Q81.3423,49.2007 81.9731,48.6196 Z "/><text fill="#000000" font-family="sans-serif" font-size="12" lengthAdjust="spacingAndGlyphs" textLength="27" x="93.5" y="49.7344">Main</text><!--class AComp--><rect fill="#FEFECE" filter="url(#f1r1addnw1tx3k)" height="32" id="AComp" style="stroke: #A80036; stroke-width: 1.5;" width="74" x="6" y="138.1992"/><ellipse cx="21" cy="154.1992" fill="#ADD1B2" rx="11" ry="11" style="stroke: #A80036; stroke-width: 1.0;"/><path d="M23.4731,160.3423 Q22.8921,160.6411 22.2529,160.7905 Q21.6138,160.9399 20.9082,160.9399 Q18.4014,160.9399 17.0815,159.2881 Q15.7617,157.6362 15.7617,154.5151 Q15.7617,151.3857 17.0815,149.7339 Q18.4014,148.082 20.9082,148.082 Q21.6138,148.082 22.2612,148.2314 Q22.9087,148.3809 23.4731,148.6797 L23.4731,151.4023 Q22.8423,150.8213 22.2488,150.5515 Q21.6553,150.2817 21.0244,150.2817 Q19.6797,150.2817 18.9949,151.3484 Q18.3101,152.415 18.3101,154.5151 Q18.3101,156.6069 18.9949,157.6736 Q19.6797,158.7402 21.0244,158.7402 Q21.6553,158.7402 22.2488,158.4705 Q22.8423,158.2007 23.4731,157.6196 Z "/><text fill="#000000" font-family="sans-serif" font-size="12" lengthAdjust="spacingAndGlyphs" textLength="42" x="35" y="158.7344">AComp</text><!--class BComp--><rect fill="#FEFECE" filter="url(#f1r1addnw1tx3k)" height="32" id="BComp" style="stroke: #A80036; stroke-width: 1.5;" width="73" x="125.5" y="138.1992"/><ellipse cx="140.5" cy="154.1992" fill="#ADD1B2" rx="11" ry="11" style="stroke: #A80036; stroke-width: 1.0;"/><path d="M142.9731,160.3423 Q142.3921,160.6411 141.7529,160.7905 Q141.1138,160.9399 140.4082,160.9399 Q137.9014,160.9399 136.5815,159.2881 Q135.2617,157.6362 135.2617,154.5151 Q135.2617,151.3857 136.5815,149.7339 Q137.9014,148.082 140.4082,148.082 Q141.1138,148.082 141.7612,148.2314 Q142.4087,148.3809 142.9731,148.6797 L142.9731,151.4023 Q142.3423,150.8213 141.7488,150.5515 Q141.1553,150.2817 140.5244,150.2817 Q139.1797,150.2817 138.4949,151.3484 Q137.8101,152.415 137.8101,154.5151 Q137.8101,156.6069 138.4949,157.6736 Q139.1797,158.7402 140.5244,158.7402 Q141.1553,158.7402 141.7488,158.4705 Q142.3423,158.2007 142.9731,157.6196 Z "/><text fill="#000000" font-family="sans-serif" font-size="12" lengthAdjust="spacingAndGlyphs" textLength="41" x="154.5" y="158.7344">BComp</text><!--link Main to AComp--><path d="M64.45,55.9492 C48.22,62.9992 29.51,74.2892 20,91.1992 C12.43,104.6592 19.16,121.0892 27.26,133.6492 " fill="none" id="Main-AComp" style="stroke: #A80036; stroke-width: 1.0;"/><polygon fill="#A80036" points="30.28,138.0892,28.5159,128.3996,27.4638,133.9578,21.9056,132.9056,30.28,138.0892" style="stroke: #A80036; stroke-width: 1.0;"/><text fill="#000000" font-family="sans-serif" font-size="13" lengthAdjust="spacingAndGlyphs" textLength="26" x="21" y="104.7676">依赖</text><!--link Main to AComp--><path d="M86.69,61.5292 C77.72,80.3592 62.47,112.3592 52.57,133.1292 " fill="none" id="Main-AComp-1" style="stroke: #A80036; stroke-width: 1.0; stroke-dasharray: 7.0,7.0;"/><polygon fill="#A80036" points="50.29,137.8992,57.7874,131.5126,52.4513,133.3905,50.5734,128.0544,50.29,137.8992" style="stroke: #A80036; stroke-width: 1.0;"/><!--link Main to BComp--><path d="M103.74,61.5292 C115.81,80.5192 136.39,112.8992 149.58,133.6492 " fill="none" id="Main-BComp" style="stroke: #A80036; stroke-width: 1.0;"/><polygon fill="#A80036" points="152.28,137.8992,150.8164,128.1597,149.5928,133.6827,144.0699,132.4592,152.28,137.8992" style="stroke: #A80036; stroke-width: 1.0;"/><!--link Main to BComp--><path d="M109.7,61.4892 C117.65,69.7792 127.06,80.4992 134,91.1992 C142.57,104.4092 149.8,120.6692 154.77,133.2292 " fill="none" id="Main-BComp-1" style="stroke: #A80036; stroke-width: 1.0; stroke-dasharray: 7.0,7.0;"/><polygon fill="#A80036" points="156.63,138.0192,157.0902,128.1811,154.815,133.3603,149.6359,131.0851,156.63,138.0192" style="stroke: #A80036; stroke-width: 1.0;"/><text fill="#000000" font-family="sans-serif" font-size="13" lengthAdjust="spacingAndGlyphs" textLength="26" x="145" y="104.7676">控制</text><!--
@startuml 
hide members

title 依赖与控制
Main - -> AComp : 依赖
Main - -> BComp


Main ..> AComp
Main ..> BComp : 控制
@enduml

PlantUML version 1.2019.06(Sat May 25 01:10:25 CST 2019)
(GPL source distribution)
Java Runtime: OpenJDK Runtime Environment
JVM: OpenJDK 64-Bit Server VM
Java Version: 11.0.5+10
Operating System: Mac OS X
OS Version: 10.14.6
Default Encoding: UTF-8
Language: zh
Country: CN
--></g></svg>